<svg xmlns="http://www.w3.org/2000/svg" width="16" height="16" fill="url(#grad1)" class="bi bi-cash" viewBox="0 0 16 16">
  <path d="M8 10a2 2 0 1 0 0-4 2 2 0 0 0 0 4"/>
  <path d="M0 4a1 1 0 0 1 1-1h14a1 1 0 0 1 1 1v8a1 1 0 0 1-1 1H1a1 1 0 0 1-1-1zm3 0a2 2 0 0 1-2 2v4a2 2 0 0 1 2 2h10a2 2 0 0 1 2-2V6a2 2 0 0 1-2-2z"/>

  <defs>
    <linearGradient id="grad1" x1="0%" y1="0%" x2="100%" y2="0%">
      <stop offset="0%" style="stop-color:rgba(176,2,166,1);stop-opacity:1" />
      <stop offset="100%" style="stop-color:rgba(235,196,52,1);stop-opacity:1" />
    </linearGradient>
  </defs>
</svg>