<svg xmlns="http://www.w3.org/2000/svg" width="16" height="16" fill="url(#grad1)" class="bi bi-bar-chart-fill" viewBox="0 0 16 16">
  <path d="M1 11a1 1 0 0 1 1-1h2a1 1 0 0 1 1 1v3a1 1 0 0 1-1 1H2a1 1 0 0 1-1-1zm5-4a1 1 0 0 1 1-1h2a1 1 0 0 1 1 1v7a1 1 0 0 1-1 1H7a1 1 0 0 1-1-1zm5-5a1 1 0 0 1 1-1h2a1 1 0 0 1 1 1v12a1 1 0 0 1-1 1h-2a1 1 0 0 1-1-1z"/>

  <defs>
    <linearGradient id="grad1" x1="0%" y1="0%" x2="100%" y2="0%">
      <stop offset="0%" style="stop-color:rgba(176,2,166,1);stop-opacity:1" />
      <stop offset="100%" style="stop-color:rgba(235,196,52,1);stop-opacity:1" />
    </linearGradient>
  </defs>
</svg>