<svg xmlns="http://www.w3.org/2000/svg" width="16" height="16" viewBox="0 0 16 16">
  <defs>
    <linearGradient id="grad1" x1="0%" y1="0%" x2="100%" y2="0%">
      <stop offset="0%" style="stop-color:rgba(176,2,166,1);stop-opacity:1" />
      <stop offset="100%" style="stop-color:rgba(235,196,52,1);stop-opacity:1" />
    </linearGradient>
    <mask id="mask1">
      <path d="M6 13c0 1.105-1.12 2-2.5 2S1 14.105 1 13s1.12-2 2.5-2 2.5.896 2.5 2m9-2c0 1.105-1.12 2-2.5 2s-2.5-.895-2.5-2 1.12-2 2.5-2 2.5.895 2.5 2" fill="white"/>
      <path fill-rule="evenodd" d="M14 11V2h1v9zM6 3v10H5V3z" fill="white"/>
      <path d="M5 2.905a1 1 0 0 1 .9-.995l8-.8a1 1 0 0 1 1.1.995V3L5 4z" fill="white"/>
    </mask>
  </defs>
  <rect width="16" height="16" fill="url(#grad1)" mask="url(#mask1)" />
</svg>
