<?xml version="1.0" standalone="no"?>
<!DOCTYPE svg PUBLIC "-//W3C//DTD SVG 20010904//EN"
 "http://www.w3.org/TR/2001/REC-SVG-20010904/DTD/svg10.dtd">
<svg version="1.0" xmlns="http://www.w3.org/2000/svg"
 width="512.000000pt" height="512.000000pt" viewBox="0 0 512.000000 512.000000"
 preserveAspectRatio="xMidYMid meet">
<metadata>
Created by potrace 1.14, written by Peter Selinger 2001-2017
</metadata>
<g transform="translate(0.000000,512.000000) scale(0.100000,-0.100000)"
fill="#000000" stroke="none">
<path d="M497 3783 c-4 -3 -7 -512 -7 -1130 l0 -1123 140 0 140 0 0 939 c0
631 3 942 10 946 9 6 76 -125 192 -375 114 -245 157 -337 268 -570 48 -102
100 -212 115 -245 14 -33 34 -66 43 -72 17 -14 134 -17 165 -5 10 4 47 71 88
157 39 83 101 213 138 290 37 77 141 296 231 488 90 191 168 347 172 347 4 0
8 -427 8 -950 l0 -950 150 0 150 0 -2 1128 -3 1127 -205 0 -205 0 -40 -80
c-22 -44 -53 -109 -69 -145 -33 -71 -74 -161 -176 -380 -37 -80 -79 -170 -93
-200 -174 -379 -199 -430 -208 -430 -4 0 -14 17 -22 38 -8 20 -56 120 -105
222 -49 102 -111 230 -137 285 -60 126 -139 290 -248 518 l-86 177 -199 0
c-109 0 -202 -3 -205 -7z"/>
<path d="M3106 3782 c-3 -5 -4 -512 -3 -1128 l2 -1119 480 -3 c563 -3 655 5
812 74 159 71 271 173 339 309 146 295 69 640 -180 803 -41 26 -114 59 -221
96 -16 6 -12 11 28 34 73 42 174 148 207 217 64 135 61 310 -7 446 -40 81 -99
137 -195 185 -107 54 -196 73 -395 84 -217 12 -860 13 -867 2z m1008 -289 c89
-34 123 -61 154 -123 24 -48 27 -66 26 -142 -2 -117 -23 -176 -85 -238 -54
-54 -128 -88 -224 -100 -33 -4 -176 -8 -317 -9 l-258 -2 0 321 0 321 323 -3
c304 -3 325 -4 381 -25z m28 -887 c107 -18 181 -50 243 -107 56 -52 79 -94 95
-177 42 -209 -39 -391 -207 -469 -104 -48 -164 -55 -525 -60 l-338 -5 0 416 0
416 323 0 c230 0 347 -4 409 -14z"/>
</g>
</svg>
