<?xml version='1.0' encoding='utf-8'?>
<svg xmlns="http://www.w3.org/2000/svg" enable-background="new 0 0 2129.982 1651.906" version="1.1" viewBox="0 0 2129.982 1651.906">
	<path d="m1011.3 1625.5c0.066 0.136 0.124 0.267 0.193 0.404 0.182-0.133 0.335-0.27 0.501-0.404h-0.694z" fill="none"/>
	<path d="m1017.4 1619.1c1.898-2.204 5.143-2.693 5.143-5.632 0-4.041-2.327-6.183-5.388-8.815-1.591-1.347-3.917-1.776-3.917-3.918 0-3.672 4.591-3.427 7.346-5.876 3.612-3.184 3.979-8.815 8.816-8.815 2.938 0 4.041 2.326 6.611 3.672 3.428 1.775 6.427 2.082 8.326 5.388 2.938-2.205 4.53-4.225 8.203-4.653v-12.49c5.693 0.49 7.406 5.021 12.611 7.347 2.449 1.102 4.958-0.429 6.856 1.469 2.571 2.571 1.652 5.448 2.449 9.06 1.04 4.775 3.122 7.836 7.347 10.285l33.547-7.347c3.428-2.02 6.795-1.469 9.794-4.163v-4.714c0-2.694 3.918-2.082 6.612-1.897 3.612 0.244 5.939-0.245 9.06-1.959 6.612-3.673 11.877-3.306 17.386-8.816 2.571 3.918 2.327 6.979 3.428 11.509 0.734 2.938 3.673 3.55 4.164 6.611 4.59-0.367 6.243-3.795 9.794-6.611 2.204 2.204 1.225 5.02 2.938 7.591 3 4.408 7.652 5.632 8.326 11.02h2.142c2.938 0 4.407-1.347 7.163-2.449v5.08c0 0.857-0.919 1.164-1.469 1.776 6.427 3.183 8.326 8.019 15.182 10.285l29.14-5.387c2.449 0.612 3.795 1.652 4.898 3.917 6.488-4.836 6.856-10.714 12.243-16.896 6.244-7.163 11.631-9.918 15.182-18.855 5.571-4.163 10.223-5.449 14.692-10.775 1.714-2.02 1.592-4.102 3.673-5.632 3.673-2.755 6.061-4.163 10.285-5.877 4.101-1.653 2.631-9.06 7.102-9.06 4.286 0 6.244 3.183 10.53 3.183 6.733 0 8.448-6.428 12.978-11.508 2.571 2.571 3.367 4.713 5.143 7.836 0.673 1.162 2.203 1.53 2.203 2.938 0 2.816-4.163 3.061-4.163 5.877 0 2.082 0.979 3.122 0.979 5.203v5.509c0 3.795-0.551 5.939-1.469 9.612l13.468-2.449c0.612 0.122 0.857 0.49 1.469 0.49 2.631 0 2.693-3.183 3.672-5.632 1.347-3.306 2.572-5.082 4.898-7.836 4.101-4.837 8.876-5.633 15.182-5.633 1.959 0 2.938 1.224 4.897 1.224 3.551 0 2.878-4.897 5.632-7.101 1.285-0.979 2.694-0.307 4.408-0.49v-7.408c0-3.244 4.346-3.366 7.592-3.366v-7.347c-2.143 0.123-3.246 0.979-5.387 0.979-3.551 0-6.245-0.062-8.816-2.449-2.204-2.02-1.101-4.591-1.714-7.591-0.857-4.04-1.959-6.244-2.694-10.285-1.041-5.571-1.714-9.06-4.898-13.713-3.49-5.081-9.304-6.551-9.304-12.672v-2.02h2.141c1.347 0 1.899 1.225 3.246 1.225 4.775 0 5.203-5.509 9.06-8.326 1.53-1.101 3.183-1.959 3.183-3.917 0-2.51-1.286-3.55-2.449-5.877 3.061-0.979 4.591-2.694 7.836-2.694 2.082 0 2.939 1.715 5.021 1.715 16.406 0 23.63-13.223 40.036-13.223 4.041 0 4.713 4.345 7.346 7.346 5.387 6.06 9.121 11.509 17.202 11.509 5.877 0 9.183 0.245 15.06 0.245 2.817 0 2.327-3.858 3.98-6.122 0.979-1.346 2.449-1.101 3.918-1.959 6.182-10.652 12.671-15.122 21.549-23.508 2.754-2.572 2.632-5.571 5.387-8.326 4.531-4.531 8.999-5.326 11.998-11.019 2.387-4.531-0.122-8.755 2.939-12.734 0.979-1.286 2.938-1.346 2.938-3v-5.815c0-2.878 3.734-3.428 6.611-3.428 3.489 0 6.061 1.407 7.836 4.407l0.98-0.245c0.979-1.959 1.774-3 2.449-5.142 0.55-1.654 0.489-3.918 2.203-3.918 3.734 0 4.591 4.898 8.326 4.898 10.835 0 17.508-2.143 26.692-8.081 2.386-1.531 4.59-0.612 6.856-2.204 5.08-3.673 7.101-7.347 12.978-9.55 2.449-0.919 3.245-3.183 5.877-3.183 4.468 0 6.672 2.51 11.019 3.428 4.224 0.918-0.184 10.285 4.163 10.285 3.244 0 6.856-1.409 6.856-4.653 0-3.368-0.674-5.632-2.693-8.326-1.592-2.142-4.653-2.449-4.653-5.142 0-0.429 0.49-0.552 0.49-0.979 4.04 0.306 6.244 1.469 10.285 1.469 0.061 4.285 0.244 6.672 0.244 10.958 0 2.693 3.061 3.183 5.387 4.469 2.817 1.53 4.102 2.938 6.857 4.653 1.529 0.918 3.917 0.857 3.917 2.694 0 1.591-1.225 2.326-1.225 3.917 0 2.694 3.918 3 3.918 5.693v3.795c0 3.061 1.714 4.531 3.183 7.163 0.979 1.837 1.347 3.918 3.428 4.408l-0.245 0.98-5.632 1.714h-4.653c-1.102 1.285-1.469 2.449-1.469 4.163 0 5.081 0.49 8.019-0.734 12.979-0.552 2.204-2.938 2.142-4.898 3.183-2.632 1.408-4.347 2.082-7.346 2.449-0.307 3.244-2.449 4.713-2.449 7.958 0 4.898 4.653 6.244 8.081 9.672 3.734 3.734 5.754 7.836 11.019 7.836 2.387 0 3.734-1.224 6.122-1.224 7.529 0 14.938 2.999 16.162 10.529 1.285 0 2.081-0.245 3.366-0.245 0.797 0 1.224 0.49 2.021 0.49 4.59 0 5.142-5.143 8.081-8.57 2.938-3.428 5.325-4.592 8.57-7.836 3.061-1.531 4.286-5.633 7.714-5.633 4.163 0 6.305 2.205 10.467 2.205 3.98 0 6.184-0.062 10.163-0.062 1.776 0 2.693 0.979 3.98 2.266 0.673-0.368 1.225-0.919 1.225-1.715 0-4.837-0.857-7.775-3.184-11.998-0.674-1.287-2.693-1.409-2.693-2.939 0-2.02 3.183-2.143 3.183-4.163 0-5.571-2.694-8.57-6.122-12.979-1.775-2.326-3.917-3.427-3.917-6.366 0-5.509 12.243-1.592 12.243-7.102 0-3.795-4.041-4.407-6.366-7.346-1.898-2.388-1.654-4.592-2.939-7.347-1.592-3.49-3.98-5.081-4.408-8.937h-7.775c-3.122 0-4.775-1.348-7.896-1.348-0.245-2.387-0.062-3.673-0.062-6.061 0-1.959-0.796-3.244 0.062-4.958 0.795-1.592 2.938-1.837 2.938-3.673 0-3.06-2.081-4.407-3.917-6.856-3.795-5.081-8.326-7.101-14.692-7.101-4.04 0-3.796 6.856-7.836 6.856-2.327 0-2.816-3.184-5.143-3.184-2.143 0-2.755 2.449-4.898 2.449-4.714 0-5.816-6.121-10.529-6.121-3.551 0-5.081 2.938-8.633 2.938-0.673 0-0.979-0.184-1.652-0.245v-2.02c0-3.245-2.143-5.816-5.388-6.306 0-2.326-1.223-3.55-1.223-5.876 0-3.428 4.653-2.633 7.591-4.408 3-1.776 3.979-4.347 4.653-7.837 0.367-1.959-0.429-3.734 0.979-5.142 1.652-1.653 3.734-1.653 4.897-3.673 1.286-2.265 0.674-4.04 1.225-6.611h0.979c0.245-3.368 1.469-5.204 1.469-8.57 2.815-0.307 4.775 0.061 7.101-1.469 2.631-1.714 2.51-4.347 4.408-6.856 1.592-2.082 3.428-3.245 3.428-5.877 0-4.102-1.286-6.306-2.204-10.285-1.224-5.142-2.265-9.55-7.101-11.509 0.612-3.857 3.979-4.653 6.122-7.836 2.387-3.55 3.979-5.509 6.611-8.815 2.939-3.673 2.694-6.979 4.653-11.264 2.449-5.204 3.795-8.326 5.142-13.958 1.348-5.632 5.327-7.652 10.286-10.529 4.285-2.449 6.734-4.102 11.263-6.367 4.469-2.204 5.388-5.693 7.101-10.285 0.98-2.693 2.939-3.98 2.939-6.856 0-18.916-5.143-29.079-7.347-47.994-0.674-5.817-2.449-8.878-2.449-14.692 0-1.592 2.204-1.837 2.204-3.428 0-1.899-0.612-3-0.734-4.898l3.428-33.058-1.33-7.751h-1041.7c-2.749 3.646-4.165 7.75-8.933 7.75-2.388 0-3.491-1.959-5.877-1.959-2.143 0-2.204 2.816-2.694 4.897-0.674 2.755-1.898 4.346-4.163 5.877-3 2.082-8.326 0.734-8.326 4.408 0 2.02 1.715 2.877 1.715 4.898 0 7.162-5.388 10.467-5.388 17.63 0 2.51 1.102 4.102 0.735 6.612-0.307 2.141-0.979 3.244-0.979 5.387 0 1.652 2.326 1.592 3.183 2.938 2.449 3.673 4.101 5.755 6.121 9.795-1.53 0.918-3.672 0.918-3.672 2.694 0 3.612 2.204 5.448 2.204 9.06 0 4.101-5.449 3.551-8.57 6.122-2.755 2.264 0.489 7.162-2.694 8.815-4.347 2.264-5.754 5.387-8.326 9.55-1.286 2.081-3.428 2.877-3.428 5.387 0 5.142 8.081 5.387 8.081 10.53 0 3.122-2.021 4.468-3.183 7.346-1.041 2.571-0.552 4.591-1.715 7.102-0.734 1.652-3.428 1.53-3.428 3.366v5.021c0 2.878-0.122 4.653 0.98 7.285 1.224 2.816 4.408 3.55 4.408 6.612 0 4.775-1.224 7.469-1.224 12.244 0 3.55 1.47 5.448 1.47 8.998v5.755c0 0.919-0.49 1.469-0.49 2.387 0 6.856 8.815 6.611 13.223 11.754 4.04 4.713 3.673 8.876 5.143 14.937 2.019 8.141 4.957 11.815 9.06 18.855 2.632 4.531 1.69 8.96 5.792 12.205 8.08-3.183 10.675-9.205 13.797-17.103 1.897-4.775 2.449-10.774 7.592-10.774 2.999 0 4.346 2.448 7.346 2.448 1.897 0 2.816-1.469 4.713-1.469h1.653c0 7.469 9.611 7.285 16.897 9.06 3.978 0.979 5.999 2.51 10.04 3.183 1.959 0.307 3.611-0.979 5.142 0.245 1.408 1.101 1.346 3.673 3.245 3.673h8.019c0.306 0.184 0.612 0.367 0.979 0.489-4.408 4.407-8.08 7.163-8.08 13.223 0 2.082 2.632 2.143 4.653 2.694 4.163 1.225 5.999 3.305 10.039 4.653 3.979 1.347 9.55 0.919 9.55 5.142 0 5.449-5.387 7.531-5.387 12.979 0 4.102 4.653 4.53 8.326 6.366 4.345 2.143 5.203 7.347 10.04 7.347 2.571 0 2.693-2.938 4.653-4.653 3.856-3.367 6.672-5.877 11.753-5.877 2.755 0 6.122 0.919 6.122 3.673 0 2.02-1.224 3.061-1.224 5.081v3.245c4.653 0.734 6.917 2.448 11.264 3.917 2.938 0.979 6.122 0 7.591 2.694 2.632 4.775 4.469 7.591 8.081 11.753 2.02 2.327 2.755 5.632 5.877 5.632 4.53 0 6.489-3.672 11.019-3.672 2.142 0 2.816 1.898 4.898 2.448 5.877 1.531 9.243 2.082 15.182 3.429 2.141 0.489 4.101 0 5.387 1.714 3.122 4.225 2.755 10.407 8.081 11.019 4.53 0.49 5.57 4.653 7.836 8.571 3.305 5.694 3.856 9.612 6.366 15.672 1.53 3.672 0.735 9.06 4.713 9.06h5.999c3.491 0 4.776 3 6.674 5.877 1.101 1.714 3.183 0.979 5.142 1.714 2.816 1.042 2.327 4.163 2.939 7.102 0.734 3.368 2.571 5.02 2.571 8.51v7.407c-0.185 0.857-0.979 1.224-1.592 1.714 1.53 3.673 5.265 4.347 6.611 8.081 0.979 2.755 0.122 4.959 1.715 7.347 2.203 3.245 4.408 5.081 4.408 9v6.488c0 3.122 2.204 4.531 2.204 7.652 0 11.142-2.816 17.509-7.836 27.548-1.899 3.795-6.367 4.592-6.367 8.815 0 0.735 0.49 1.225 0.49 1.959 0 2.449-1.47 3.673-1.47 6.122 0 8.938 6.919 11.895 10.959 19.976 3.246 1.592 5.508 2.431 7.896 5.002 1.652 1.774 2.141 4.408 4.652 4.408 3.061 0 4.531-1.959 7.592-1.959 6.917 0 8.754 8.325 15.672 8.325 2.816 0 4.531-0.122 7.102-1.224 1.714-0.734 2.019-2.938 3.917-2.938 4.775 0 7.224 2.449 11.999 2.449 5.387 0 7.836-4.163 13.223-4.163 3.734 0 4.591 3.857 7.836 5.632 2.877 1.592 6.305-0.856 8.326 1.715 5.419 6.925 5.103 12.435 9.112 20.654h0.694c2.35-1.91 3.257-3.993 5.373-6.451z" fill="#C1272D"/>
	<path d="m1703.7 1067.2c0.367-2.938 2.449-4.04 4.163-6.366 5.694-7.591 13.468-10.836 13.468-20.325 0-5.631 4.776-7.529 8.081-11.998 4.468-5.999 6.917-9.612 12.244-14.936 3.305-3.306 7.468-4.837 7.468-9.55v-11.999c0-2.448 3.367-2.02 5.51-3.183 1.775-0.919 2.142-3.183 4.163-3.183 2.694 0 4.163 0.734 6.856 0.734 6.612 0 8.693-5.876 14.448-9.06 4.775-2.632 9.427-1.959 12.733-6.366 6.856 6.857 12.734 10.53 22.406 10.53 2.082 0 3.428 0.183 5.265-0.735l-1.224-4.897c3.183-1.287 4.958-2.571 8.448-2.939v-10.285c6.49 0 11.325 0.062 16.04-4.653 0.979-4.653 5.937-5.632 10.529-6.856 6.489-1.776 10.345-1.837 16.652-3.918 5.693-1.898 4.652-8.265 7.101-13.713 2.51-5.51 6.856-7.897 6.856-13.958 0-1.102-1.469-1.346-1.469-2.449 0-2.326 0.856-4.102 2.693-5.387-0.552-0.919-1.469-1.346-1.469-2.449 0-3.245 0-6.551 2.939-7.836 2.386-1.041 6.305 0 6.305-2.632 0-2.694 0.062-4.286 0.062-6.979 0-3.367-2.51-4.776-4.653-7.285-1.898-2.204-2.326-4.04-4.408-6.121 2.939-2.633 3.061-5.51 5.632-8.571 2.51-3 5.51-2.632 9.305-3.673 3.918-1.041 5.265-3.49 9.06-4.897 3.367-1.224 8.203-0.735 8.203-4.347v-3c3.918-0.245 5.755-2.694 9.672-2.694 3.674 0 6.122 0.062 9.305 1.96 3.122 1.837 2.264 7.101 5.877 7.101 3.306 0 3.306-5.387 6.611-5.387 4.346 0 6.366 2.632 10.285 4.409 3.122 1.407 5.325 1.652 7.836 3.918 1.837-3.183 2.816-5.204 3.428-8.815 0.367-2.204 0.428-5.143 2.694-5.143 0.979 0 1.469 0.49 2.449 0.49 3.978 0 6.06-2.204 10.04-2.204 4.163 0 4.53 4.713 7.836 7.346l17.875-4.652c2.509 0.183 3.612 2.203 6.121 2.203 2.143 0 3.184-1.469 5.143-2.203 3.122-1.164 5.387-0.919 8.081-2.939 1.163-0.857 1.469-2.449 2.938-2.449 2.082 0 2.327 2.939 4.409 2.939 2.631 0 3.795-3.061 3.795-5.694 0-1.592-0.123-2.509 0-4.101 2.386 0.367 2.386 3.918 4.775 3.918 2.693 0 3.917-2.939 3.917-5.632 0-1.531-1.592-1.837-2.693-2.939-0.797-0.552-1.898-1.224-2.939-1.224-0.979 0-1.469 0.735-2.448 0.735-0.98 0-0.552-1.469-0.552-2.449 0-1.837 0.062-2.816 0.062-4.653 0-1.286-0.734-2.204-1.715-2.938 1.898-3.858 6.122-2.817 9.55-5.388 5.755-4.285 9.305-8.877 9.305-16.1v-5.02c0-3.428 2.754-4.653 4.163-7.774 0.551-1.286 0.49-3.183 1.96-3.183 1.223 0 1.714 0.979 2.938 0.979 4.041 0 4.958-4.102 8.57-5.877 3.795-1.898 8.816-2.143 8.816-6.366 0-5.143 11.263-1.715 11.263-6.857 0-6.184-1.469-9.735-3.917-15.428-1.286-2.938-4.347-2.571-7.102-4.163-8.386-4.898-14.569-5.387-24.242-5.387-2.143 0-3.246 1.162-5.387 1.469-0.735-3-4.285-2.755-7.346-3.183-5.817-0.856-8.938-2.693-14.814-2.693-1.837 0-3.429-0.185-4.531 1.224-1.592 2.081-1.469 5.632-4.163 5.632-3.613 0-3.796-4.348-5.388-7.592-1.53 3.122-1.775 7.347-5.264 7.347-8.02 0-12.183-3-19.957-5.143-3.98-1.101-6.612-0.612-10.285-2.449-4.592-2.265-7.224-3.857-12.243-4.653-3.98-0.612-6.244 0.245-10.285-0.244-2.694-0.307-3.246-2.755-5.143-4.653 4.653-5.143 10.101-6.734 11.264-13.652 2.754 0.734 4.407-0.061 7.224-0.061 1.408 0 2.142 0.979 3.551 0.979 2.631 0 1.407-3.98 2.938-6.121 3.428-4.776 7.714-5.572 13.59-6.612 1.163-4.653 0-7.346 0-11.998 0-1.592 1.898-1.776 3.306-2.449-1.531-3.673-1.408-6.306-2.938-10.04-1.164-2.878-3.673-3.98-3.673-7.102 0-3.061 0.612-4.714 1.715-7.591 0-1.164 0.244-2.082 0.244-3.245 0-1.286 1.408-1.531 1.96-2.632 1.652-3.123 0.734-5.51 0.734-9.06 0-2.632-3.428-2.449-5.143-4.408-2.754-3.183-0.979-6.673-1.958-10.775-0.612-2.448-3.183-3.123-3.183-5.632 0-12.55 17.386-11.081 23.508-22.038 1.96-3.551 1.715-6.429 3.918-9.795 1.224-1.836 2.999-2.02 4.897-3.183 5.081-3.123 6.979-7.652 6.979-13.652v-19.32h-1947.8c2.226 8.283 2.693 14.002 7.51 21.708 3.795 6.122 4.897 10.407 5.632 17.63 0.918 8.816-0.368 16.896 7.102 21.549 3.366 2.082 2.632 5.632 4.163 9.305 4.713 11.325 7.102 18.426 7.102 30.732 0 3.183-1.224 4.958-1.224 8.142v6.244c0 5.999-1.531 8.877-3.428 14.631-0.245 3.429-3.551 4.224-4.898 7.347-1.47 3.367-1.347 5.693-2.694 9.06-3.917 9.488-7.775 14.141-11.019 23.998 6.917-2.265 9.427-8.081 16.651-8.081 4.713 0 5.938 4.713 8.326 8.815l18.366-9.549 0.489-0.979c-0.551 0.061-0.857 0.244-1.408 0.244-1.469 0-2.327-0.429-3.734-0.734l-0.49-0.979c6.244-3.613 1.653-16.162 8.816-16.162 6.488 0 11.753 5.265 11.753 11.754 0 1.407-1.346 1.897-2.204 2.938-1.469 1.775-1.224 3.673-2.694 5.387-2.448 2.755-5.264 2.694-8.815 3.673-13.195 3.811-29.385 4.309-10.774 15.428 1.285 0.734 2.449 1.101 3.183 2.448-1.776 1.041-3.428 2.082-3.428 4.163 0 2.693 1.714 3.978 2.204 6.611 0.49 2.387 0.734 5.387 3.183 5.387s3.857-0.857 6.122-1.714c-0.245 3.244-3.918 3.366-6.611 5.142-2.143 1.408-2.021 4.713-4.653 4.898-1.164 0.061-2.265-0.857-2.939 0-2.755 3.305-0.612 6.733-1.224 11.019-0.367 2.694-1.531 4.101-1.714 6.857 6.366-1.042 8.632-5.02 13.713-8.815 0.122 0.979 0.245 1.53 0.245 2.509 0 0.236-7e-3 0.465-0.022 0.69v-1e-3c4.163-0.612 5.286-3.445 8.837-5.649 6.427-3.98 10.162-6.674 14.692-12.734 3.673 3.245 4.345 6.305 6.857 10.53 3.917 6.611 8.876 8.754 11.508 15.917 1.53 4.223 1.163 7.101 2.939 11.264 3.061 7.04 8.632 8.631 11.019 15.917 4.898 2.019 7.04 4.775 10.53 8.815 2.081 2.387 2.938 5.387 6.121 5.387 1.898 0 2.205-2.02 3.673-3.183 1.897-1.469 3.306-1.959 5.387-3.183 1.653-0.979 2.205-2.938 4.164-2.938 2.326 0 3.122 2.081 5.142 3.183 8.571 4.713 13.591 9.06 23.385 9.06 2.816 0 4.408-0.735 7.224-0.735 2.02 0 2.02 2.509 3.428 3.918 4.163 4.163 6.489 6.55 11.264 9.795 5.143 3.489 6.857 7.592 8.816 13.468 1.529 4.653 6.794 3.612 11.264 5.633 6.611 2.999 10.345 6.672 17.63 6.366 6.611-0.245 10.1 3.795 14.447 8.815 1.837 2.142 2.082 4.531 4.653 5.632 3.551 1.53 6.061 0.795 9.796 1.714 12.304 3.061 17.508 11.754 30.119 11.754 3.489 0 5.693-1.714 7.591-4.653 0.735-1.163 0.796-2.938 2.204-2.938 4.04 0 6.061 1.959 10.101 1.959 3.061 0 4.714 0.061 7.775 0.061-2.266 6.184-4.163 9.795-4.163 16.346 0 7.039 2.02 13.038 8.326 16.162 6.06 2.999 10.223 3.183 16.957 3.183h5.265c3.735 0 2.755-5.143 4.714-8.326 3.734-6.061 7.592-11.019 14.753-11.019h5.021c3.245 0 5.203-0.49 8.141-1.715 0.429 0 0.735 0.245 1.163 0.245 4.04 0 5.939-2.082 9.857-2.938 7.102-1.531 11.448-1.224 18.733-1.224 5.509 0 8.387 2.449 13.896 2.449h5.02c6.489 0 9.918 2.204 16.223 3.672 4.958 1.163 8.019 0.367 12.979 1.47 5.448 1.224 7.651 5.632 13.223 5.632 6.611 0 9.856-3.428 15.917-6.122 5.265-2.326 8.999-2.02 13.958-4.897 4.408-2.571 6.979-4.898 12.06-4.898 1.041 0 1.592 0.122 2.632 0.245 0 8.999 1.652 14.141 4.408 22.773 1.47 4.653 0.734 8.937 4.898 11.508 4.468 2.755 4.53 6.979 6.121 11.999 1.347 4.346 3.122 6.55 4.653 10.774 1.285 3.428 1.775 7.836 5.448 7.836 0.734 0 1.164-0.122 1.898-0.244-0.245-0.49-0.734-0.857-0.734-1.47 0-4.469-0.98-11.019 3.489-11.019 1.898 0 2.938 0.245 4.836 0.122 0 3.367 0.673 5.203 1.469 8.448 0.367 0 0.551 0.245 0.918 0.245 0.979 0 1.531-0.49 2.51-0.49 3.122 0 5.632 0 7.836 2.205 3.183 3.183 2.631 6.733 4.653 10.774 2.571 5.142 7.469 5.326 11.019 9.795-1.898 2.572-4.163 4.04-4.163 7.285 0 1.346 0.183 2.143 0.122 3.49 4.468 0 6.428-2.694 10.897-3.428 0.918 2.755 1.652 4.223 1.959 7.102 0.245 2.204-0.489 5.387 1.715 5.387 3.061 0 5.632-1.224 6.611-4.162 2.999 0.734 4.286 2.631 6.611 4.653 3.122 2.693 7.102 3.917 7.102 8.08 0 3.306-4.653 3.796-4.653 7.102 0 3.673 1.53 5.816 2.694 9.305 2.264 1.652 3.489 3.673 6.366 3.673 0.061 0.795 0.245 1.224 0.245 2.019 0 3.061-1.715 4.592-2.449 7.53 4.53 1.47 5.938 5.388 7.102 10.04 0.612 2.633 1.959 3.918 1.959 6.612 0 1.837-2.633 1.714-3.183 3.429-2.694 8.203-1.102 15.242-7.592 21.059-1.714 1.53-3.979-0.061-5.877 1.224-1.775 1.225-1.959 2.938-3.672 4.408-0.905 0.772-1.657 1.64-2.331 2.534h1041.7l-4.303-25.065z" fill="#006A44"/>
	<path d="m2025.4 548.27l0.551-7.347v-14.509c0-3.306 0.828-5.199 1.807-8.382-1.959 0.122-3.522 0.852-5.481 0.852-2.387 0-3.673 0.184-6.06 0.245-4.47-0.184-7.041-0.489-11.509-0.489-6.49 0-10.163 1.959-16.652 1.959-2.326 0-3.428-1.592-5.387-2.694-2.265-1.286-4.407-1.041-5.877-3.183-1.531-2.204-1.469-4.775-3.918-5.877-4.285-1.959-5.387-5.571-9.795-7.346-5.877-2.388-9.795-2.449-16.162-2.449-4.714 0-7.285 1.224-11.999 1.224-4.898 0-2.816-7.224-4.653-11.754-2.143-5.265-5.448-7.04-8.325-11.998-3.306 1.346-5.449 1.714-9.061 1.714-0.429 0-0.612-0.429-0.98-0.489-10.774-8.081-14.754-15.428-21.059-27.426-3.368-6.367-9.06-8.755-9.06-15.917 0-2.938 1.469-4.408 1.469-7.347 0-11.631-8.448-16.039-14.203-26.201-1.714-3.061-6.121 1.224-9.06-0.735-1.898-1.224-1.959-3.368-3.917-4.408-6.734-3.735-11.754-3.917-17.631-9.06-6.856-5.999-8.755-11.264-12.978-19.345-3.428-6.489-5.816-9.795-10.041-15.672-1.347-1.898-0.918-3.735-1.959-5.877-3.123-6.244-8.326-8.57-15.182-9.549-5.02-0.735-6-5.571-10.53-7.836-7.408-3.673-11.999-4.653-19.1-9.06-3.491-2.143-5.081-5.388-9.183-5.388-3.917 0-6.061 1.224-9.979 1.224-0.367 0-0.55-0.245-0.918-0.245l-1.223-13.468c-1.469-4.469-5.632-5.081-8.081-9.06-2.204-3.612-1.409-7.04-4.408-10.04-3.795-3.795-7.897-3.245-12.978-4.898-8.387-2.755-12.979-5.265-20.324-10.284-4.959-3.368-7.469-7.225-13.468-7.592-0.062-1.164-0.245-1.837-0.245-3 0-6.367 4.163-9.489 4.163-15.855 0-4.347-7.101-4.347-7.101-8.693 0-2.143 0.612-3.306 0.612-5.449v-5.202c-5.082 0.673-8.081 2.877-10.897 7.102h-7.286c-1.897 0-2.938 0.489-4.835 0.489-8.081 0-13.407-2.693-18.733-8.815-4.286-4.898-5.327-11.509-11.754-11.509-6.918 0-8.815 7.529-10.774 14.141-5.204 0-8.204 0.062-13.407 0.062-4.469 0-4.653-7.102-9.121-7.102-2.082 0-2.633 2.082-4.163 3.428-1.836 1.592-3.305 2.082-5.387 3.428-2.326-2.082-1.776-5.02-4.163-7.102-2.572-2.204-5.449-0.49-8.938-0.49-5.816 0-9.857-1.531-14.814 1.47-2.816 1.715-3.061 5.632-6.367 5.632-3.917 0-5.509-3.183-8.081-6.121-3-3.428-4.346-5.633-7.346-9.06-2.143-2.511-4.408-2.939-7.101-4.898-1.347-0.979-1.041-2.632-1.714-4.163-1.286-2.816-2.633-4.163-4.163-6.857l-9.795 5.142c-5.02 5.571-9.612 8.571-17.141 8.571-3.98 0-5.02-3.98-8.815-5.143-6.551-2.082-11.203-0.857-16.896-4.653-2.143-1.408-1.409-3.857-2.694-6.121-2.878-5.021-3.245-8.633-3.917-14.448-0.245-2.081-1.96-2.816-1.96-4.897 0-2.327 0.979-3.551 0.979-5.877 0-6.306-2.571-9.55-5.387-15.182-1.041-2.143-0.367-4.163-1.959-5.877-2.755-2.938-5.632-3.123-8.815-5.632-4.592-3.672-3.673-8.632-7.347-13.223-2.938-3.735-7.285-3.857-9.06-8.326-2.204-5.509-2.204-9.182-2.204-15.121v-14.325c0-4.223 0.061-7.836-3.428-10.223-2.51-1.714-4.959-1.898-6.611-4.408-2.449-3.735-1.224-7.408-4.163-10.774-3.368-3.858-8.326-4.959-8.326-10.04 0-7.531 6.122-10.836 6.122-18.366 0-2.51-3.551-1.776-5.877-2.694-3.306-1.346-5.265-2.081-8.571-3.428l-10.774 9.55 3.917 11.019c-2.143 2.694-4.346 4.408-7.836 4.408-5.632 0-7.713-4.53-13.223-5.877-0.979 2.387-0.43 4.224-1.469 6.611-1.592 3.49-4.714 4.04-6.612 7.347-2.571-0.857-3.368-2.449-5.877-3.673l-14.202 3.428h-5.816c-0.918 0-1.347-0.734-2.264-0.734-1.776 0-1.286 2.632-1.469 4.408-0.429 4.224 1.837 7.714-0.979 10.775-1.775 1.959-4.224 1.224-6.918 1.224-6.489 0-10.1 0.551-16.59 0.062 0 8.203 1.347 14.937-4.653 20.508-1.898 1.715-2.021 3.979-4.163 5.387-4.286 2.817-10.285 3.367-10.285 8.571 0 2.755 0.489 4.653 2.448 6.611v13.713c-8.264 0-12.55 2.694-20.569 4.898-4.714 1.285-7.592 1.837-11.754 4.408-3.98 2.449-6.061 4.346-10.53 6.121-3.795 1.898-4.285 6.367-8.325 6.367-6.919 0-9.183-5.755-14.693-10.04-2.203-1.715-3.122-3.918-5.876-3.918-2.939 0-4.103 1.837-6.856 3.183l-10.53-17.141h-8.325c-1.715 0.184-2.694 0.49-4.409 0.49-1.347 0-2.081-0.245-3.428-0.245-2.571 0-0.919 3.979-1.714 6.367-0.797 2.326-2.633 2.877-4.408 4.653-1.592 1.592-2.143 3.917-4.408 3.917-2.021 0-3.123-0.979-5.143-0.979-4.102 0-5.754 2.938-9.305 4.898-11.631 6.427-18.304 11.447-31.588 12.733-1.469-3-0.429-5.939-2.938-8.08-2.878-2.449-6.856-1.347-8.815-4.653-1.224-2.082-0.123-4.653-2.205-5.877-1.531-0.857-2.878-0.49-4.714-0.49-2.631 0-4.101-0.245-6.734-0.245-6.611 0-2.51-10.407-6.428-15.672-2.02-2.755-4.653-3.123-6.856-5.877-2.816-3.55-2.938-6.611-3.183-11.141-12.611 0-19.652-0.123-32.262-0.123-4.468 0-5.143-6.121-9.611-6.121-4.53 0-7.102 0.979-11.631 0.979-5.571 0-8.693-1.224-14.265-1.224-2.755 0-4.346 0.245-7.102 0.245-6.427 0-1.959 14.202-8.386 14.202-1.715 0-2.572-1.224-3.428-2.693l0.734 0.979c-0.367-4.04-0.979-6.244-0.979-10.285 0-5.51 2.694-8.388 2.694-13.897 0-2.449-0.43-3.856 0-6.305h-11.449c-2.082 0-3.245-1.101-5.325-1.101-3.49 0-5.326 1.53-8.693 2.448-8.693 2.387-13.775 3.122-22.528 4.653-8.51 1.47-12.061 6.305-20.08 9.796-4.897 2.142-6.428 7.101-11.753 7.101-6.062 0-9.918-0.061-15.428-2.693-2.02-0.919-2.632-2.755-4.653-3.673-3.55-1.653-6.121-1.224-9.794-2.449-4.653-1.531-8.081-1.224-11.999-4.163-6.734-5.02-7.101-12.734-15.182-15.427l-11.264-0.49-16.162-2.204c-4.102 0.489-5.509 3.428-9.304 4.898-7.775 3.06-12.734 2.571-21.06 3.917-7.53 0-11.998 1.592-19.345 0.061 0 7.898 1.715 12.366 1.715 20.264 0 3.918-4.347 4.713-8.081 5.877-4.531 1.408-6.429 4.04-11.02 5.142-2.938 3.918-6.673 4.776-11.019 7.102-1.959-3.428-4.653-4.286-6.857-7.591-0.612-0.979-0.979-2.204-2.204-2.204-3.672 0-5.632 1.959-9.305 1.959-2.51 0-2.51-3.123-3.427-5.387-1.531-3.795-3.613-5.449-5.633-9.06-3.183-5.754-4.163-9.795-4.163-16.407 0-1.836 2.571-1.653 4.408-1.959-2.816-8.448-3.735-13.223-4.897-22.038h-6.552c-4.957 0-9.243-0.735-11.57-5.388-5.999 1.959-6.488 8.326-12.488 10.285 1.714 3.489 3.183 5.325 4.408 9.06-8.51 5.08-13.53 9.55-23.325 9.55h-4.775c-4.653 0-6.917 2.938-11.57 2.938-2.939 0-4.47-1.47-7.408-1.47h-10.897c-4.898 0-7.407-2.938-12.304-2.938-7.775 0-8.388 11.754-16.162 11.754-5.51 0-8.142-3.061-13.223-5.143-1.96-0.796-3.918-0.489-5.143-2.204-2.082-2.878-1.531-5.754-4.163-8.081-1.898-1.653-3.673-1.653-6.122-2.449-7.285-2.387-11.509-3.917-19.1-3.917-11.203-0.919-17.141-4.653-27.671-8.57-3.917-1.47-6.795-0.185-10.774-1.47-3.49-1.164-4.898-4.163-8.571-4.163-5.203 0-6.673 4.958-11.508 6.857-4.47 1.774-7.531 1.224-12.366 1.224-4.408 0-7.469 0.429-11.142-1.959-1.408-0.919-1.346-2.388-2.448-3.673-1.47-1.653-3.673-0.307-5.877-0.734-2.021-0.367-2.816-2.204-4.898-2.204-6.306 0-8.633 6.366-14.937 6.366-8.633 0-7.53-13.774-16.162-15.182l-7.101 1.224c-3.735-0.245-6.062 0.061-9.55-1.224-4.408-1.654-6.429-4.898-11.142-4.898-2.755 0-3.672 2.632-6.244 3.428-1.775 0.551-3.06-0.061-4.897 0.245-6.184 1.102-9.122 4.897-15.428 4.897-3.735 0-4.836-4.408-8.57-4.408-5.081 0-5.204 6-8.326 10.04-3.55 4.591-8.325 6.55-8.325 12.305v5.02c0 0.919-0.49 1.408-0.49 2.326 0 0.735 0.184 1.164 0.245 1.898-2.143 0.123-3.306 0.735-5.449 0.735h-4.53c-2.142 0-3.367 0.489-5.448 0.979-8.449 1.897-11.816 8.081-20.447 8.081-5.877 0-7.959-5.877-13.835-5.877-4.103 0-4.47 4.958-8.081 6.857-8.51 4.59-9.673 14.508-19.345 15.672-10.101 1.224-10.713 15.428-20.815 15.428-3 0-4.592-0.98-7.591-0.98-1.531 0-2.143 1.47-3.673 1.47-2.693 0-3.55-2.326-5.877-3.673-3.857-2.204-6.366-3.917-10.836-3.917h-5.755c-3.183 0-5.51 0.183-7.896 2.204-1.102 0.918-1.224 2.693-2.694 2.693-0.979 0-1.469-0.489-2.449-0.489-3.06 0-3.49 3.367-5.142 5.877-2.449 3.672-4.714 5.142-8.326 7.591-2.143 1.469-3 3.673-5.632 3.673-2.755 0-3.367-3.673-6.121-3.673-3.306 0-2.939 4.286-4.653 7.102-3.061 4.958-4.959 7.713-7.591 12.978-4.103 8.264-8.878 14.447-18.121 15.182-5.633 3.734-10.163 3.367-16.162 6.366-8.204 4.102-11.449 8.632-19.1 13.713-4.348 2.877-4.592 6.795-7.347 11.264-1.409 2.327-3.428 2.632-5.142 4.653-2.633 3.061-2.572 6.183-5.632 8.815-3.613 3.122-6.734 3.183-11.265 4.653 0.123 1.96 0.98 3 0.98 4.958v7.775c0.428 5.265 1.224 8.203 1.224 13.468 0 7.04-8.571 8.081-10.285 14.937-1.592 6.366-1.776 14.692-8.326 14.692-5.204 0-4.837-8.815-10.04-8.815-4.531 0-6.122 3.673-10.285 5.387-8.265 3.428-13.693 4.266-22.508 6.47l7e-3 0.031c1.345 5.491 2.715 10.763 3.891 17.986 0.244 8.693 0.734 13.591 0.734 22.284 0 6.06-0.734 9.855-2.204 15.917v8.631c0 14.937-9.55 22.223-9.55 37.16 0 11.387 4.653 17.508 4.653 28.895 0 6.979-1.715 10.897-1.715 17.876 0 6.428 4.409 9.427 4.409 15.855v8.203c0 6.429 2.204 9.734 3.428 16.101 1.837 9.673 1.285 15.427 4.163 24.732 0.551 1.897 2.264 2.326 3.428 3.918 3.306 4.469 5.02 6.857 7.836 11.754 5.632 4.04 6.428 9.366 7.836 16.162 1.837 9.06 1.897 14.447 4.163 23.508 1.653 6.795 3.429 10.468 5.388 17.141 0.205 0.701 0.392 1.378 0.571 2.044h1947.8v-10.617z" fill="#FDB913"/>
</svg>